<?xml version="1.0" encoding="UTF-8"?><svg id="Layer_2" xmlns="http://www.w3.org/2000/svg" xmlns:xlink="http://www.w3.org/1999/xlink" viewBox="0 0 925.8419 184.6276"><defs><linearGradient id="linear-gradient" x1="462.9209" y1="184.6276" x2="462.9209" y2="0" gradientUnits="userSpaceOnUse"><stop offset="0" stop-color="#3c8e49"/><stop offset="1" stop-color="#55a548"/></linearGradient></defs><g id="Layer_1-2"><path d="M881.9712,57.3682c2.0021,2.2545,3.5801,5.9128-.0907,7.4094-3.3118,1.3502-6.8078.1472-10.1801.0195-15.4344-.5844-21.9374,8.0997-18.8928,23.061l2.2062,8.0247c-8.6372-12.5802-5.2269-28.0625,1.7336-40.5173,3.6528.9603,7.0674,2.9919,10.9568,3.0015l-5.5609-1.8224c-.8252-.5656-4.1057-1.6893-4.2583-2.5798,4.7798-7.6917,11.1823-14.3415,18.0523-20.1707,2.922.5591,5.7281,1.9523,8.7425,2.4875,2.4599.4367,4.7652.6317,7.2755.4867l-9.5534-1.6192c-.8099-.4117-5.1051-1.6931-4.8434-2.7305.1188-.4709,6.6281-5.2985,7.6105-6.0345,3.9243-2.94,8.1224-5.5172,12.0822-8.4102,4.2451,1.2372,8.331,3.0226,12.8926,2.5006l-6.0637-.9407c-.8292-.2077-4.769-1.6414-4.9222-2.281-.2494-1.0415,6.8182-4.2491,7.5772-5.486-5.5532,2.2682-10.4941,5.812-15.7207,8.7185-.8006.0816-.4917-.0537-.5681-.5708-.3302-2.2327.0671-4.3491.2653-6.5578.0375-.4184.4509-1.2879-.2658-1.2123-1.0672,1.9012-.2814,8.3529-.9534,9.4691-.3156.5242-8.5998,5.9522-10.0073,7.0444-3.2387,2.513-6.3748,5.2482-9.3162,8.1073-1.5387-1.2956-2.6195-2.9676-3.6638-4.6654l-2.5846-6.6934c-.0331,4.676,3.2169,8.4018,4.4993,12.6196-6.3872,5.781-11.9556,12.6276-15.8771,20.345-2.3297-1.5376-3.6052-3.9576-5.2952-6.0625-.1614,1.9667,4.2925,6.3367,4.3911,7.3884.1198,1.2781-3.5213,7.0944-3.8304,8.9075l-7.5931-19.3089c-1.2746-5.8007.8631-12.3346,7.8059-8.5638,1.3617.7396,5.0232,5.1639,6.6145,2.4863.7446-1.253-1.5388-9.6417-1.7029-11.9451-.4075-5.7192-.2081-14.6671,3.2398-19.4861,5.9204-8.275,12.5539,2.9874,17.621,6.2039,6.8207,4.3297,7.7702-3.4536,10.3877-8.1304,1.8001-3.2162,5.946-10.3402,10.2024-9.8348,4.0567.4817,5.2548,7.3042,7.2963,7.49,2.5845.2352,3.9669-5.9799,6.0181-6.3591,3.3174-.6133,3.582,2.3757,4.5742,2.5716,1.5059.2974,7.9645-3.082,8.7877.7346.77,3.5701-3.9476,7.3382-3.271,9.6784.7749,2.6803,9.9551,2.1538,7.6966,7.0916-2.0585,4.5006-18.9798,2.6738-23.2679,7.0428-.895.9118-1.5802,2.7614-.9815,3.9555,1.2502,2.4933,11.1764-.6314,13.5298,5.0329,2.1927,5.2774-3.2092,9.708-7.9462,10.7708-7.264,1.6297-20.609-1.1201-26.8754,2.681-4.1998,2.5475.4673,4.8962,2.0268,6.6524l.0003.0002ZM93.5863,73.2957h-27.465l-26.8757,31.5144c-3.3386,4.0753-6.3081,7.8422-8.9092,11.3022-2.6027,3.4609-4.9828,6.9104-7.1427,10.3453-.3526.5611-.7087,1.1442-1.064,1.7222l.3273-24.916v-29.9682H0v109.7119h22.4571v-31.3351l14.5332-16.0902,31.193,47.4254h26.5818l-42.1893-62.2468,41.0106-47.4651h-.0001ZM153.793,106.1354c-3.3143-2.2085-7.0577-3.8405-11.2294-4.8962-4.1733-1.0557-8.468-1.5835-12.8857-1.5835-6.1364,0-11.6463.884-16.5303,2.6513-4.8857,1.7665-8.9723,4.3198-12.2599,7.6576-3.2892,3.3386-5.645,7.4123-7.0682,12.2227l20.2486,3.3135c.6371-1.7673,1.6191-3.3621,2.9452-4.7861,1.3252-1.4232,3.0431-2.5647,5.1536-3.4236s4.5902-1.2888,7.4374-1.2888c2.7484,0,5.0921.4299,7.0318,1.2888,1.9389.8589,3.3985,2.0984,4.3813,3.7183.9812,1.6199,1.4726,3.6082,1.4726,5.964v.3683c0,1.7673-.6752,3.1055-2.0255,4.013-1.3503.9091-3.4859,1.5713-6.4052,1.9883-2.9209.4169-6.763.8719-11.5232,1.3617-4.0753.3934-7.9652,1.0808-11.6714,2.0619-3.707.9828-7.0197,2.406-9.9405,4.2704-2.9209,1.866-5.2281,4.3449-6.9209,7.4374-1.6936,3.0925-2.5404,6.9209-2.5404,11.486,0,5.4491,1.1892,10.0029,3.571,13.6588,2.3801,3.6576,5.6442,6.406,9.7932,8.247,4.1474,1.8409,8.8234,2.7614,14.0272,2.7614,4.0737,0,7.6689-.5651,10.7865-1.6936,3.1168-1.1285,5.7802-2.6626,7.9895-4.6023,2.2093-1.9381,3.9757-4.1838,5.3018-6.7371h.7359v11.4131h20.9116v-55.4449c0-4.9577-.9698-9.216-2.9079-12.7756-1.9397-3.558-4.5659-6.4424-7.8786-8.6517h-.0001ZM142.6373,153.5544c0,2.8974-.7367,5.5228-2.2093,7.8794-1.4726,2.3558-3.5224,4.2218-6.1486,5.5957-2.6262,1.3746-5.6815,2.0619-9.1666,2.0619-2.406,0-4.5408-.3683-6.406-1.105-1.8668-.7359-3.3386-1.828-4.4186-3.2763-1.0799-1.4475-1.6191-3.2269-1.6191-5.3382,0-2.2579.5635-4.1109,1.6936-5.5592,1.1285-1.4475,2.7242-2.6141,4.7861-3.4981,2.0611-.8832,4.4412-1.5203,7.1419-1.9138,1.2265-.1473,2.6254-.3433,4.1967-.5894,1.5705-.2453,3.167-.5157,4.7861-.8096,1.6207-.2947,3.0925-.6379,4.4186-1.0314,1.3252-.3918,2.3064-.8338,2.9452-1.3252v8.9092h0ZM222.5308,99.582c-4.6145,0-8.7011,1.3018-12.2591,3.9029-3.5596,2.6019-6.1,6.4554-7.6212,11.5605h-.8832v-14.3583h-21.3537v82.3205h22.0904v-46.8304c0-3.4349.7472-6.4424,2.2457-9.0201,1.4961-2.5768,3.5944-4.5894,6.2951-6.0377,2.6991-1.4475,5.7179-2.172,9.0573-2.172,1.6677,0,3.4349.0988,5.301.2947,1.8652.1967,3.2884.4671,4.2712.8096v-19.7329c-.9828-.2453-2.1356-.4291-3.4617-.5521-1.3244-.1222-2.5525-.1846-3.6819-.1846h0ZM304.1754,104.3682c-5.0565-3.1411-10.6287-4.7124-16.7149-4.7124-4.663,0-8.5408.7861-11.6333,2.3566-3.0925,1.5713-5.5843,3.5102-7.4738,5.8167-1.8903,2.308-3.3499,4.5408-4.3813,6.7007h-.6622v-41.2339h-22.0896v109.7119h21.7212v-13.1804h1.0306c1.0314,2.2093,2.5153,4.4307,4.455,6.6643,1.9389,2.2336,4.455,4.1117,7.5475,5.6329,3.0925,1.5203,6.8715,2.2821,11.3386,2.2821,6.3332,0,12.0268-1.6313,17.0833-4.8962,5.0549-3.2641,9.0573-8.0502,12.0025-14.3583,2.9452-6.3073,4.4177-14.0272,4.4177-23.1574,0-9.3755-1.5098-17.2047-4.5287-23.4893-3.0188-6.283-7.0569-10.9954-12.1126-14.1373ZM296.1859,154.7331c-1.3503,3.7312-3.3386,6.6521-5.9632,8.7618-2.627,2.1113-5.8547,3.1662-9.6831,3.1662-3.7312,0-6.9209-1.0306-9.5722-3.0925s-4.6752-4.9448-6.0741-8.6517c-1.3997-3.7053-2.0992-8.0373-2.0992-12.9958,0-5.0071.6873-9.339,2.0619-12.9966,1.373-3.656,3.3872-6.5032,6.0377-8.5408,2.6505-2.0368,5.8652-3.0561,9.6459-3.0561,3.877,0,7.1168,1.0565,9.7195,3.1662,2.6011,2.1113,4.5764,5.0071,5.9268,8.689,1.3503,3.6811,2.0255,7.928,2.0255,12.7384s-.6752,9.0816-2.0255,12.812h0ZM391.5435,104.9939c-6.0142-3.558-13.1691-5.3382-21.4646-5.3382-8.2461,0-15.3889,1.7802-21.4265,5.3382-6.0385,3.5596-10.6894,8.5173-13.9535,14.874-3.2649,6.3574-4.8962,13.8062-4.8962,22.3478,0,8.4429,1.6313,15.843,4.8962,22.1997,3.2641,6.3574,7.915,11.3152,13.9535,14.874,6.0377,3.5596,13.1804,5.3382,21.4265,5.3382,8.2955,0,15.4504-1.7786,21.4646-5.3382,6.0118-3.5588,10.6505-8.5165,13.9163-14.874,3.2641-6.3566,4.8962-13.7568,4.8962-22.1997,0-8.5416-1.6321-15.9904-4.8962-22.3478-3.2658-6.3566-7.9045-11.3144-13.9163-14.874ZM385.9106,154.9905c-1.3261,3.8049-3.3143,6.7995-5.9648,8.9828-2.6505,2.185-5.9397,3.2771-9.8669,3.2771s-7.2034-1.0921-9.8296-3.2771c-2.6262-2.1834-4.6015-5.1779-5.9276-8.9828-1.3252-3.8033-1.9883-8.0867-1.9883-12.8485,0-4.8598.663-9.1787,1.9883-12.9594,1.3261-3.7798,3.3014-6.7493,5.9276-8.91,2.6262-2.1591,5.9017-3.2398,9.8296-3.2398s7.2164,1.0808,9.8669,3.2398c2.6505,2.1607,4.6388,5.1302,5.9648,8.91,1.3252,3.7806,1.9883,8.0996,1.9883,12.9594,0,4.7618-.663,9.0452-1.9883,12.8485ZM481.38,103.374c-4.2453-2.4781-9.216-3.7183-14.9104-3.7183-6.9703,0-12.6534,1.8782-17.046,5.6329-3.6158,3.0913-6.463,7.2564-8.5662,12.4596l-.3066-17.0611h-20.838v82.3205h22.0904v-47.64c0-3.6819.6744-6.7987,2.0247-9.3512,1.3503-2.5517,3.2398-4.5036,5.6701-5.8539,2.4287-1.3495,5.1909-2.0247,8.2834-2.0247,4.663,0,8.3077,1.4483,10.9339,4.3441,2.6262,2.8966,3.9393,6.8974,3.9393,12.0017v48.524h22.0896v-52.3524c0-6.4303-1.1658-11.9652-3.4973-16.604s-5.6216-8.1976-9.8669-10.6772h0ZM558.3688,141.6263h23.8388c-.0916,4.4832-1.0973,8.4269-3.0373,11.8179-2.0377,3.5596-4.9464,6.2959-8.7254,8.2097-3.7806,1.9146-8.3206,2.8723-13.6224,2.8723-5.8903,0-10.9962-1.4232-15.3152-4.2712-4.3206-2.8464-7.6705-6.9824-10.0506-12.4065-2.3817-5.424-3.5718-12.0138-3.5718-19.771s1.2022-14.3324,3.6082-19.7329c2.4044-5.3997,5.7673-9.5107,10.0879-12.3336,4.319-2.8221,9.3018-4.234,14.9468-4.234,3.0431,0,5.8418.3813,8.3943,1.1415,2.5517.7618,4.8233,1.8774,6.8108,3.3499,1.9883,1.4726,3.6819,3.2528,5.0808,5.3382,1.3989,2.087,2.491,4.455,3.2771,7.1063h22.8254c-.7853-5.4491-2.4918-10.419-5.1172-14.9112-2.6262-4.4914-6.0134-8.3813-10.1616-11.6706-4.1482-3.2884-8.8849-5.828-14.211-7.6212-5.3269-1.7907-11.0812-2.6869-17.2662-2.6869-9.6216,0-18.2863,2.2336-25.9924,6.6999-7.707,4.4679-13.8191,10.9104-18.3348,19.329-4.5165,8.4194-6.7736,18.568-6.7736,30.4466,0,11.5362,2.172,21.5131,6.5161,29.9317,4.3441,8.4194,10.3826,14.8991,18.1138,19.4391,7.7313,4.5408,16.7254,6.8108,26.9858,6.8108,9.1787,0,17.3277-1.8523,24.4462-5.5592,7.1168-3.7053,12.7133-9.0071,16.7886-15.9045,4.0737-6.8958,6.1113-15.1557,6.1113-24.7773v-13.6953h-45.6525v17.0824h0ZM669.5994,106.1354c-3.3135-2.2085-7.0569-3.8405-11.2285-4.8962-4.1733-1.0557-8.468-1.5835-12.8857-1.5835-6.1364,0-11.6463.884-16.5303,2.6513-4.8849,1.7665-8.9715,4.3198-12.2599,7.6576-3.2892,3.3386-5.6458,7.4123-7.069,12.2227l20.2494,3.3135c.6371-1.7673,1.6199-3.3621,2.9452-4.7861,1.3252-1.4232,3.0431-2.5647,5.1544-3.4236,2.1097-.8589,4.5894-1.2888,7.4366-1.2888,2.7484,0,5.0921.4299,7.0318,1.2888,1.9389.8589,3.3985,2.0984,4.3813,3.7183.9812,1.6199,1.4726,3.6082,1.4726,5.964v.3683c0,1.7673-.6752,3.1055-2.0247,4.013-1.3511.9091-3.4859,1.5713-6.406,1.9883-2.9217.4169-6.763.8719-11.524,1.3617-4.0745.3934-7.9644,1.0808-11.6706,2.0619-3.707.9828-7.0205,2.406-9.9405,4.2704-2.9209,1.866-5.2273,4.3449-6.9209,7.4374s-2.5404,6.9209-2.5404,11.486c0,5.4491,1.1892,10.0029,3.571,13.6588,2.3801,3.6576,5.6442,6.406,9.7932,8.247,4.1474,1.8409,8.8234,2.7614,14.0272,2.7614,4.0737,0,7.6689-.5651,10.7865-1.6936,3.1168-1.1285,5.7802-2.6626,7.9895-4.6023,2.2093-1.9381,3.9757-4.1838,5.3018-6.7371h.7359v11.4131h20.9116v-55.4449c0-4.9577-.9698-9.216-2.9087-12.7756-1.9397-3.558-4.5651-6.4424-7.8786-8.6517h-.0003ZM658.4445,153.5544c0,2.8974-.7367,5.5228-2.2093,7.8794-1.4726,2.3558-3.5224,4.2218-6.1478,5.5957-2.627,1.3746-5.6831,2.0619-9.1674,2.0619-2.406,0-4.5408-.3683-6.406-1.105-1.866-.7359-3.3386-1.828-4.4177-3.2763-1.0808-1.4475-1.6199-3.2269-1.6199-5.3382,0-2.2579.5635-4.1109,1.6936-5.5592,1.1285-1.4475,2.7242-2.6141,4.7861-3.4981,2.0611-.8832,4.442-1.5203,7.1419-1.9138,1.2265-.1473,2.6254-.3433,4.1967-.5894,1.5705-.2453,3.1662-.5157,4.7861-.8096,1.6199-.2947,3.0925-.6379,4.4186-1.0314,1.3252-.3918,2.3064-.8338,2.9452-1.3252v8.9092ZM738.338,99.582c-4.6153,0-8.7011,1.3018-12.2599,3.9029-3.5596,2.6019-6.1,6.4554-7.6212,11.5605h-.8832v-14.3583h-21.3537v82.3205h22.0896v-46.8304c0-3.4349.748-6.4424,2.2457-9.0201,1.4969-2.5768,3.5952-4.5894,6.2959-6.0377,2.6991-1.4475,5.7179-2.172,9.0565-2.172,1.6685,0,3.4358.0988,5.3018.2947,1.8652.1967,3.2884.4671,4.2704.8096v-19.7329c-.982-.2453-2.1348-.4291-3.4609-.5521-1.3252-.1222-2.5525-.1846-3.6811-.1846h0ZM819.9826,104.3682c-5.0565-3.1411-10.6287-4.7124-16.7149-4.7124-4.6639,0-8.5416.7861-11.6341,2.3566-3.0925,1.5713-5.5843,3.5102-7.473,5.8167-1.8903,2.308-3.3508,4.5408-4.3813,6.7007h-.663v-41.2339h-22.0896v109.7119h21.722v-13.1804h1.0306c1.0306,2.2093,2.5153,4.4307,4.455,6.6643,1.9381,2.2336,4.4542,4.1117,7.5467,5.6329,3.0925,1.5203,6.8723,2.2821,11.3395,2.2821,6.3323,0,12.0268-1.6313,17.0833-4.8962,5.0549-3.2641,9.0565-8.0502,12.0017-14.3583,2.9452-6.3073,4.4177-14.0272,4.4177-23.1574,0-9.3755-1.509-17.2047-4.5278-23.4893-3.0196-6.283-7.0577-10.9954-12.1126-14.1373h-.0002ZM811.9931,154.7331c-1.3503,3.7312-3.3386,6.6521-5.964,8.7618-2.627,2.1113-5.8539,3.1662-9.6831,3.1662-3.7304,0-6.9209-1.0306-9.5722-3.0925-2.6505-2.0619-4.6752-4.9448-6.0741-8.6517-1.3989-3.7053-2.0984-8.0373-2.0984-12.9958,0-5.0071.6865-9.339,2.0611-12.9966,1.3738-3.656,3.3872-6.5032,6.0385-8.5408,2.6505-2.0368,5.8652-3.0561,9.6451-3.0561,3.8778,0,7.1176,1.0565,9.7195,3.1662,2.6019,2.1113,4.5772,5.0071,5.9276,8.689,1.3495,3.6811,2.0247,7.928,2.0247,12.7384s-.6752,9.0816-2.0247,12.812h0ZM846.0535,100.6872h22.0896v82.3205h-22.0896v-82.3205Z" fill="url(#linear-gradient)"/></g></svg>